<svg xmlns="http://www.w3.org/2000/svg" viewBox="0 0 32 32"><g data-name="Layer 2"><path d="M27.85,29.06H4.15A3.15,3.15,0,0,1,1,25.91V11.06H31V25.91A3.15,3.15,0,0,1,27.85,29.06ZM3,13.06V25.91a1.15,1.15,0,0,0,1.15,1.15h23.7A1.15,1.15,0,0,0,29,25.91V13.06Z"/><path d="M31,13.06H1V6.21A3.15,3.15,0,0,1,4.15,3.06h23.7A3.15,3.15,0,0,1,31,6.21Zm-28-2H29V6.21a1.15,1.15,0,0,0-1.15-1.15H4.15A1.15,1.15,0,0,0,3,6.21Z"/><rect width="8.58" height="2" x="11.87" y="7" transform="rotate(-71.23 16.153 8)"/><rect width="8.58" height="2" x="19.58" y="7" transform="rotate(-71.24 23.86 8.001)"/><rect width="8.58" height="2" x="3.85" y="7" transform="rotate(-71.23 8.135 8.003)"/><path d="M14.28,24.61a1.11,1.11,0,0,1-1.11-1.11v-7a1.11,1.11,0,0,1,1.71-.93l5.44,3.5a1.11,1.11,0,0,1,0,1.86l-5.44,3.51A1.1,1.1,0,0,1,14.28,24.61Zm-.48-1.86h0Zm1.37-4.63v3.74L18.07,20Zm-1.37-.89h0Z"/></g></svg>